<svg width="353" height="384" viewBox="0 0 353 384" fill="none" xmlns="http://www.w3.org/2000/svg">
<circle cx="303" cy="319" r="49" stroke="#22D3EE" stroke-width="2"/>
<path fill-rule="evenodd" clip-rule="evenodd" d="M118.448 68.2851C158.373 74.8726 188.986 110.789 203.103 148.676C215.676 182.417 198.525 217.26 186.616 251.224C175.814 282.03 164.374 312.157 138.702 332.345C107.85 356.606 71.3734 378.977 32.6673 372.283C-8.82502 365.107 -44.9733 335.451 -63.05 297.454C-80.2231 261.357 -74.3007 218.629 -57.7273 182.276C-43.4055 150.862 -10.349 137.008 18.653 118.243C51.1166 97.2375 80.2694 61.9859 118.448 68.2851Z" fill="url(#paint0_linear_6_208)"/>
<path fill-rule="evenodd" clip-rule="evenodd" d="M146.656 44.1912C192.113 52.3913 228.211 89.5533 245.719 128.021C261.311 162.279 243.303 196.44 231.194 229.933C220.21 260.313 208.478 289.987 180.234 309.146C146.292 332.169 105.908 353.075 61.8269 344.818C14.5733 335.966 -27.5385 304.843 -49.5321 266.105C-70.4261 229.305 -65.4464 186.804 -48.1538 151.109C-33.2106 120.263 3.64634 107.738 35.716 90.1375C71.6135 70.4359 103.189 36.35 146.656 44.1912Z" stroke="#22D3EE" stroke-width="2"/>
<defs>
<linearGradient id="paint0_linear_6_208" x1="107.721" y1="64.7342" x2="21.6333" y2="369.821" gradientUnits="userSpaceOnUse">
<stop stop-color="#FAFAFA"/>
<stop offset="1" stop-color="#E4E4E7"/>
</linearGradient>
</defs>
</svg>
