<svg width="109" height="24" viewBox="0 0 109 24" fill="none" xmlns="http://www.w3.org/2000/svg">
<path d="M9.89953 1.5H22.5485L13.249 15.2837H0.600006L9.89953 1.5Z" fill="#A5F3FC"/>
<path d="M10.4535 16.5612L6.85153 21.9H20.1005L29.4 8.11624H19.6215L13.9239 16.5612H10.4535Z" fill="#22D3EE"/>
<path d="M44.9324 10.32C44.7297 9.94667 44.4364 9.664 44.0524 9.472C43.679 9.26933 43.2364 9.168 42.7244 9.168C41.839 9.168 41.1297 9.46133 40.5964 10.048C40.063 10.624 39.7964 11.3973 39.7964 12.368C39.7964 13.4027 40.0737 14.2133 40.6284 14.8C41.1937 15.376 41.967 15.664 42.9484 15.664C43.6204 15.664 44.1857 15.4933 44.6444 15.152C45.1137 14.8107 45.455 14.32 45.6684 13.68H42.1964V11.664H48.1484V14.208C47.9457 14.8907 47.599 15.5253 47.1084 16.112C46.6284 16.6987 46.015 17.1733 45.2684 17.536C44.5217 17.8987 43.679 18.08 42.7404 18.08C41.631 18.08 40.639 17.84 39.7644 17.36C38.9004 16.8693 38.223 16.192 37.7324 15.328C37.2524 14.464 37.0124 13.4773 37.0124 12.368C37.0124 11.2587 37.2524 10.272 37.7324 9.408C38.223 8.53333 38.9004 7.856 39.7644 7.376C40.6284 6.88533 41.615 6.64 42.7244 6.64C44.0684 6.64 45.199 6.96533 46.1164 7.616C47.0444 8.26667 47.6577 9.168 47.9564 10.32H44.9324ZM56.6559 16.016H52.4639L51.7919 18H48.9279L52.9919 6.768H56.1599L60.2239 18H57.3279L56.6559 16.016ZM55.9519 13.904L54.5599 9.792L53.1839 13.904H55.9519ZM64.1968 15.888H67.7808V18H61.4608V6.768H64.1968V15.888ZM71.8218 8.96V11.232H75.4858V13.344H71.8218V15.808H75.9658V18H69.0858V6.768H75.9658V8.96H71.8218ZM83.47 18L81.134 13.76H80.478V18H77.742V6.768H82.334C83.2193 6.768 83.9713 6.92267 84.59 7.232C85.2193 7.54133 85.6887 7.968 85.998 8.512C86.3073 9.04533 86.462 9.64267 86.462 10.304C86.462 11.0507 86.2487 11.7173 85.822 12.304C85.406 12.8907 84.7873 13.3067 83.966 13.552L86.558 18H83.47ZM80.478 11.824H82.174C82.6753 11.824 83.0487 11.7013 83.294 11.456C83.55 11.2107 83.678 10.864 83.678 10.416C83.678 9.98933 83.55 9.65333 83.294 9.408C83.0487 9.16267 82.6753 9.04 82.174 9.04H80.478V11.824ZM95.1715 16.016H90.9795L90.3075 18H87.4435L91.5075 6.768H94.6755L98.7395 18H95.8435L95.1715 16.016ZM94.4675 13.904L93.0755 9.792L91.6995 13.904H94.4675ZM102.888 15.76H107.72V18H99.7844V15.92L104.584 9.008H99.7844V6.768H107.72V8.848L102.888 15.76Z" fill="#22D3EE"/>
</svg>
